<svg width="75" height="17" viewBox="0 0 75 17" fill="none" xmlns="http://www.w3.org/2000/svg">
<path d="M11.48 2.8V13H8.855V10.3L9.005 7.03L6.935 10.525H4.895L2.78 6.955L2.975 10.3V13H0.35V2.8H2.9L5.915 7.795L8.93 2.8H11.48ZM15.3331 3.34C14.9231 3.34 14.5681 3.195 14.2681 2.905C13.9781 2.605 13.8331 2.25 13.8331 1.84C13.8331 1.43 13.9781 1.08 14.2681 0.79C14.5681 0.49 14.9231 0.339999 15.3331 0.339999C15.7431 0.339999 16.0931 0.49 16.3831 0.79C16.6831 1.08 16.8331 1.43 16.8331 1.84C16.8331 2.25 16.6831 2.605 16.3831 2.905C16.0931 3.195 15.7431 3.34 15.3331 3.34ZM14.0281 4.48H16.6381V13H14.0281V4.48ZM24.0779 4.3C25.1879 4.3 25.9529 4.595 26.3729 5.185C26.8029 5.775 27.0179 6.625 27.0179 7.735V13H24.4079V8.065C24.4079 7.365 24.3229 6.88 24.1529 6.61C23.9929 6.34 23.6779 6.205 23.2079 6.205C22.6979 6.205 22.1779 6.375 21.6479 6.715V13H19.0379V4.48H20.9729L21.2429 5.185C22.2229 4.595 23.1679 4.3 24.0779 4.3ZM37.3607 1V13H35.4257L35.1857 12.37C34.4657 12.91 33.6557 13.18 32.7557 13.18C31.9657 13.18 31.2657 13.015 30.6557 12.685C30.0557 12.345 29.5857 11.845 29.2457 11.185C28.9057 10.525 28.7357 9.715 28.7357 8.755C28.7357 7.175 29.1807 6.04 30.0707 5.35C30.9607 4.65 32.1457 4.3 33.6257 4.3C34.0057 4.3 34.3807 4.335 34.7507 4.405V1H37.3607ZM31.3757 8.755C31.3757 10.455 31.9357 11.305 33.0557 11.305C33.3957 11.305 33.6957 11.27 33.9557 11.2C34.2257 11.13 34.4907 11.015 34.7507 10.855V6.28C34.4207 6.21 34.1007 6.175 33.7907 6.175C32.9707 6.175 32.3607 6.39 31.9607 6.82C31.5707 7.24 31.3757 7.885 31.3757 8.755ZM49.5004 2.8V13H46.8004V8.56H42.6154V13H39.9154V2.8H42.6154V6.655H46.8004V2.8H49.5004ZM54.0355 9.22C54.0855 9.93 54.2605 10.455 54.5605 10.795C54.8605 11.135 55.3205 11.305 55.9405 11.305C56.4005 11.305 56.8255 11.225 57.2155 11.065C57.6155 10.895 58.0705 10.645 58.5805 10.315L59.2855 11.965C58.7555 12.395 58.2305 12.705 57.7105 12.895C57.1905 13.085 56.5955 13.18 55.9255 13.18C54.9355 13.18 54.1055 12.99 53.4355 12.61C52.7655 12.22 52.2655 11.695 51.9355 11.035C51.6155 10.365 51.4555 9.605 51.4555 8.755C51.4555 7.405 51.8355 6.325 52.5955 5.515C53.3555 4.705 54.4655 4.3 55.9255 4.3C57.0855 4.3 57.9655 4.615 58.5655 5.245C59.1755 5.865 59.4855 6.75 59.4955 7.9C59.4955 8.35 59.4305 8.79 59.3005 9.22H54.0355ZM56.9605 7.525C56.9705 7.465 56.9755 7.385 56.9755 7.285C56.9655 6.875 56.8555 6.565 56.6455 6.355C56.4355 6.135 56.1455 6.025 55.7755 6.025C54.8955 6.025 54.3455 6.525 54.1255 7.525H56.9605ZM61.2986 1H63.9086V13H61.2986V1ZM70.9134 4.3C71.7034 4.3 72.3984 4.475 72.9984 4.825C73.6084 5.175 74.0834 5.69 74.4234 6.37C74.7634 7.04 74.9334 7.85 74.9334 8.8C74.9334 10.32 74.4834 11.43 73.5834 12.13C72.6934 12.83 71.5134 13.18 70.0434 13.18C69.6634 13.18 69.2884 13.145 68.9184 13.075V16.48H66.3084V4.48H68.2434L68.4834 5.11C69.2034 4.57 70.0134 4.3 70.9134 4.3ZM69.8784 11.305C70.6984 11.305 71.3034 11.095 71.6934 10.675C72.0934 10.245 72.2934 9.595 72.2934 8.725C72.2934 7.025 71.7334 6.175 70.6134 6.175C70.2734 6.175 69.9684 6.21 69.6984 6.28C69.4384 6.35 69.1784 6.465 68.9184 6.625V11.2C69.2484 11.27 69.5684 11.305 69.8784 11.305Z" fill="#00DB5B"/>
</svg>
